<?xml version="1.0" encoding="UTF-8"?>
<svg width="162px" height="95px" viewBox="0 0 162 95" xmlns="http://www.w3.org/2000/svg" xmlns:xlink="http://www.w3.org/1999/xlink" version="1.1">
 <!-- Generated by Pixelmator Pro 2.0.8 -->
 <g id="group">
  <path id="Путь" d="M143 82.758 C143 78.616 146.358 75.258 150.5 75.258 154.642 75.258 158 78.616 158 82.758 158 86.9 154.642 90.258 150.5 90.258 146.358 90.258 143 86.9 143 82.758 Z" fill="#c51e1e" fill-opacity="1" stroke="none"/>
  <path id="Путь-1" d="M143 36.091 C143 31.949 146.358 28.591 150.5 28.591 154.642 28.591 158 31.949 158 36.091 158 40.234 154.642 43.591 150.5 43.591 146.358 43.591 143 40.234 143 36.091 Z" fill="#c51e1e" fill-opacity="1" stroke="none"/>
  <path id="Путь-2" d="M143 59.425 C143 55.283 146.358 51.925 150.5 51.925 154.642 51.925 158 55.283 158 59.425 158 63.567 154.642 66.925 150.5 66.925 146.358 66.925 143 63.567 143 59.425 Z" fill="#c51e1e" fill-opacity="1" stroke="none"/>
  <path id="Путь-3" d="M143 12.758 C143 8.616 146.358 5.258 150.5 5.258 154.642 5.258 158 8.616 158 12.758 158 16.9 154.642 20.258 150.5 20.258 146.358 20.258 143 16.9 143 12.758 Z" fill="#c51e1e" fill-opacity="1" stroke="none"/>
  <path id="Путь-4" d="M119.667 82.758 C119.667 78.616 123.025 75.258 127.167 75.258 131.309 75.258 134.667 78.616 134.667 82.758 134.667 86.9 131.309 90.258 127.167 90.258 123.025 90.258 119.667 86.9 119.667 82.758 Z" fill="#c51e1e" fill-opacity="1" stroke="none"/>
  <path id="Путь-5" d="M119.667 36.091 C119.667 31.949 123.025 28.591 127.167 28.591 131.309 28.591 134.667 31.949 134.667 36.091 134.667 40.234 131.309 43.591 127.167 43.591 123.025 43.591 119.667 40.234 119.667 36.091 Z" fill="#c51e1e" fill-opacity="1" stroke="none"/>
  <path id="Путь-6" d="M119.667 59.425 C119.667 55.283 123.025 51.925 127.167 51.925 131.309 51.925 134.667 55.283 134.667 59.425 134.667 63.567 131.309 66.925 127.167 66.925 123.025 66.925 119.667 63.567 119.667 59.425 Z" fill="#c51e1e" fill-opacity="1" stroke="none"/>
  <path id="Путь-7" d="M119.667 12.758 C119.667 8.616 123.025 5.258 127.167 5.258 131.309 5.258 134.667 8.616 134.667 12.758 134.667 16.9 131.309 20.258 127.167 20.258 123.025 20.258 119.667 16.9 119.667 12.758 Z" fill="#c51e1e" fill-opacity="1" stroke="none"/>
  <path id="Путь-8" d="M96.333 82.758 C96.333 78.616 99.691 75.258 103.833 75.258 107.975 75.258 111.333 78.616 111.333 82.758 111.333 86.9 107.975 90.258 103.833 90.258 99.691 90.258 96.333 86.9 96.333 82.758 Z" fill="#c51e1e" fill-opacity="1" stroke="none"/>
  <path id="Путь-9" d="M96.333 36.091 C96.333 31.949 99.691 28.591 103.833 28.591 107.975 28.591 111.333 31.949 111.333 36.091 111.333 40.234 107.975 43.591 103.833 43.591 99.691 43.591 96.333 40.234 96.333 36.091 Z" fill="#c51e1e" fill-opacity="1" stroke="none"/>
  <path id="Путь-10" d="M96.333 59.425 C96.333 55.283 99.691 51.925 103.833 51.925 107.975 51.925 111.333 55.283 111.333 59.425 111.333 63.567 107.975 66.925 103.833 66.925 99.691 66.925 96.333 63.567 96.333 59.425 Z" fill="#c51e1e" fill-opacity="1" stroke="none"/>
  <path id="Путь-11" d="M96.333 12.758 C96.333 8.616 99.691 5.258 103.833 5.258 107.975 5.258 111.333 8.616 111.333 12.758 111.333 16.9 107.975 20.258 103.833 20.258 99.691 20.258 96.333 16.9 96.333 12.758 Z" fill="#c51e1e" fill-opacity="1" stroke="none"/>
  <path id="Путь-12" d="M73 82.758 C73 78.616 76.358 75.258 80.5 75.258 84.642 75.258 88 78.616 88 82.758 88 86.9 84.642 90.258 80.5 90.258 76.358 90.258 73 86.9 73 82.758 Z" fill="#c51e1e" fill-opacity="1" stroke="none"/>
  <path id="Путь-13" d="M73 36.091 C73 31.949 76.358 28.591 80.5 28.591 84.642 28.591 88 31.949 88 36.091 88 40.234 84.642 43.591 80.5 43.591 76.358 43.591 73 40.234 73 36.091 Z" fill="#c51e1e" fill-opacity="1" stroke="none"/>
  <path id="Путь-14" d="M73 59.425 C73 55.283 76.358 51.925 80.5 51.925 84.642 51.925 88 55.283 88 59.425 88 63.567 84.642 66.925 80.5 66.925 76.358 66.925 73 63.567 73 59.425 Z" fill="#c51e1e" fill-opacity="1" stroke="none"/>
  <path id="Путь-15" d="M73 12.758 C73 8.616 76.358 5.258 80.5 5.258 84.642 5.258 88 8.616 88 12.758 88 16.9 84.642 20.258 80.5 20.258 76.358 20.258 73 16.9 73 12.758 Z" fill="#c51e1e" fill-opacity="1" stroke="none"/>
  <path id="Путь-16" d="M49.667 82.758 C49.667 78.616 53.025 75.258 57.167 75.258 61.309 75.258 64.667 78.616 64.667 82.758 64.667 86.9 61.309 90.258 57.167 90.258 53.025 90.258 49.667 86.9 49.667 82.758 Z" fill="#c51e1e" fill-opacity="1" stroke="none"/>
  <path id="Путь-17" d="M49.667 36.091 C49.667 31.949 53.025 28.591 57.167 28.591 61.309 28.591 64.667 31.949 64.667 36.091 64.667 40.234 61.309 43.591 57.167 43.591 53.025 43.591 49.667 40.234 49.667 36.091 Z" fill="#c51e1e" fill-opacity="1" stroke="none"/>
  <path id="Путь-18" d="M49.667 59.425 C49.667 55.283 53.025 51.925 57.167 51.925 61.309 51.925 64.667 55.283 64.667 59.425 64.667 63.567 61.309 66.925 57.167 66.925 53.025 66.925 49.667 63.567 49.667 59.425 Z" fill="#c51e1e" fill-opacity="1" stroke="none"/>
  <path id="Путь-19" d="M49.667 12.758 C49.667 8.616 53.025 5.258 57.167 5.258 61.309 5.258 64.667 8.616 64.667 12.758 64.667 16.9 61.309 20.258 57.167 20.258 53.025 20.258 49.667 16.9 49.667 12.758 Z" fill="#c51e1e" fill-opacity="1" stroke="none"/>
  <path id="Путь-20" d="M26.333 82.758 C26.333 78.616 29.691 75.258 33.833 75.258 37.975 75.258 41.333 78.616 41.333 82.758 41.333 86.9 37.975 90.258 33.833 90.258 29.691 90.258 26.333 86.9 26.333 82.758 Z" fill="#c51e1e" fill-opacity="1" stroke="none"/>
  <path id="Путь-21" d="M26.333 36.091 C26.333 31.949 29.691 28.591 33.833 28.591 37.975 28.591 41.333 31.949 41.333 36.091 41.333 40.234 37.975 43.591 33.833 43.591 29.691 43.591 26.333 40.234 26.333 36.091 Z" fill="#c51e1e" fill-opacity="1" stroke="none"/>
  <path id="Путь-22" d="M26.333 59.425 C26.333 55.283 29.691 51.925 33.833 51.925 37.975 51.925 41.333 55.283 41.333 59.425 41.333 63.567 37.975 66.925 33.833 66.925 29.691 66.925 26.333 63.567 26.333 59.425 Z" fill="#c51e1e" fill-opacity="1" stroke="none"/>
  <path id="Путь-23" d="M26.333 12.758 C26.333 8.616 29.691 5.258 33.833 5.258 37.975 5.258 41.333 8.616 41.333 12.758 41.333 16.9 37.975 20.258 33.833 20.258 29.691 20.258 26.333 16.9 26.333 12.758 Z" fill="#c51e1e" fill-opacity="1" stroke="none"/>
  <path id="Путь-24" d="M3 82.758 C3 78.616 6.358 75.258 10.5 75.258 14.642 75.258 18 78.616 18 82.758 18 86.9 14.642 90.258 10.5 90.258 6.358 90.258 3 86.9 3 82.758 Z" fill="#c51e1e" fill-opacity="1" stroke="none"/>
  <path id="Путь-25" d="M3 36.091 C3 31.949 6.358 28.591 10.5 28.591 14.642 28.591 18 31.949 18 36.091 18 40.234 14.642 43.591 10.5 43.591 6.358 43.591 3 40.234 3 36.091 Z" fill="#c51e1e" fill-opacity="1" stroke="none"/>
  <path id="Путь-26" d="M3 59.425 C3 55.283 6.358 51.925 10.5 51.925 14.642 51.925 18 55.283 18 59.425 18 63.567 14.642 66.925 10.5 66.925 6.358 66.925 3 63.567 3 59.425 Z" fill="#c51e1e" fill-opacity="1" stroke="none"/>
  <path id="Путь-27" d="M3 12.758 C3 8.616 6.358 5.258 10.5 5.258 14.642 5.258 18 8.616 18 12.758 18 16.9 14.642 20.258 10.5 20.258 6.358 20.258 3 16.9 3 12.758 Z" fill="#c51e1e" fill-opacity="1" stroke="none"/>
 </g>
</svg>
