<svg width="16" height="16" viewBox="0 0 16 16" fill="none" xmlns="http://www.w3.org/2000/svg">
<path fill-rule="evenodd" clip-rule="evenodd" d="M10.146 4.64592C10.1924 4.59935 10.2476 4.56241 10.3084 4.5372C10.3691 4.512 10.4342 4.49902 10.5 4.49902C10.5658 4.49902 10.6309 4.512 10.6916 4.5372C10.7524 4.56241 10.8075 4.59935 10.854 4.64592L13.854 7.64592C13.9006 7.69236 13.9375 7.74754 13.9627 7.80828C13.9879 7.86903 14.0009 7.93415 14.0009 7.99992C14.0009 8.06568 13.9879 8.13081 13.9627 8.19155C13.9375 8.2523 13.9006 8.30747 13.854 8.35392L10.854 11.3539C10.7601 11.4478 10.6328 11.5005 10.5 11.5005C10.3672 11.5005 10.2399 11.4478 10.146 11.3539C10.0521 11.26 9.99936 11.1327 9.99936 10.9999C9.99936 10.8671 10.0521 10.7398 10.146 10.6459L12.793 7.99992L10.146 5.35392C10.0994 5.30747 10.0625 5.2523 10.0373 5.19155C10.0121 5.13081 9.9991 5.06568 9.9991 4.99992C9.9991 4.93415 10.0121 4.86903 10.0373 4.80828C10.0625 4.74754 10.0994 4.69236 10.146 4.64592V4.64592Z" fill="#C51E1E"/>
<path fill-rule="evenodd" clip-rule="evenodd" d="M2 7.99994C2 7.86733 2.05268 7.74015 2.14645 7.64639C2.24021 7.55262 2.36739 7.49994 2.5 7.49994H13C13.1326 7.49994 13.2598 7.55262 13.3536 7.64639C13.4473 7.74015 13.5 7.86733 13.5 7.99994C13.5 8.13255 13.4473 8.25972 13.3536 8.35349C13.2598 8.44726 13.1326 8.49994 13 8.49994H2.5C2.36739 8.49994 2.24021 8.44726 2.14645 8.35349C2.05268 8.25972 2 8.13255 2 7.99994Z" fill="#C51E1E"/>
</svg>
