<svg width="46" height="46" viewBox="0 0 46 46" fill="none" xmlns="http://www.w3.org/2000/svg">
<path d="M21.6523 6.82812H24.3477C24.5872 6.82812 24.707 6.94792 24.707 7.1875V38.8125C24.707 39.0521 24.5872 39.1719 24.3477 39.1719H21.6523C21.4128 39.1719 21.293 39.0521 21.293 38.8125V7.1875C21.293 6.94792 21.4128 6.82812 21.6523 6.82812Z" fill="#C51E1E"/>
<path d="M7.90625 21.293H38.0938C38.3333 21.293 38.4531 21.4128 38.4531 21.6523V24.3477C38.4531 24.5872 38.3333 24.707 38.0938 24.707H7.90625C7.66667 24.707 7.54688 24.5872 7.54688 24.3477V21.6523C7.54688 21.4128 7.66667 21.293 7.90625 21.293Z" fill="#C51E1E"/>
</svg>
