<svg width="51" height="93" viewBox="0 0 51 93" fill="none" xmlns="http://www.w3.org/2000/svg">
<circle cx="4.5" cy="88.5" r="4.5" transform="rotate(-90 4.5 88.5)" fill="#3D3D3D"/>
<circle cx="32.5" cy="88.5" r="4.5" transform="rotate(-90 32.5 88.5)" fill="#3D3D3D"/>
<circle cx="18.5" cy="88.5" r="4.5" transform="rotate(-90 18.5 88.5)" fill="#3D3D3D"/>
<circle cx="46.5" cy="88.5" r="4.5" transform="rotate(-90 46.5 88.5)" fill="#3D3D3D"/>
<circle cx="4.5" cy="74.5" r="4.5" transform="rotate(-90 4.5 74.5)" fill="#3D3D3D"/>
<circle cx="32.5" cy="74.5" r="4.5" transform="rotate(-90 32.5 74.5)" fill="#3D3D3D"/>
<circle cx="18.5" cy="74.5" r="4.5" transform="rotate(-90 18.5 74.5)" fill="#3D3D3D"/>
<circle cx="46.5" cy="74.5" r="4.5" transform="rotate(-90 46.5 74.5)" fill="#3D3D3D"/>
<circle cx="4.5" cy="60.5" r="4.5" transform="rotate(-90 4.5 60.5)" fill="#3D3D3D"/>
<circle cx="32.5" cy="60.5" r="4.5" transform="rotate(-90 32.5 60.5)" fill="#3D3D3D"/>
<circle cx="18.5" cy="60.5" r="4.5" transform="rotate(-90 18.5 60.5)" fill="#3D3D3D"/>
<circle cx="46.5" cy="60.5" r="4.5" transform="rotate(-90 46.5 60.5)" fill="#3D3D3D"/>
<circle cx="4.5" cy="46.5" r="4.5" transform="rotate(-90 4.5 46.5)" fill="#3D3D3D"/>
<circle cx="32.5" cy="46.5" r="4.5" transform="rotate(-90 32.5 46.5)" fill="#3D3D3D"/>
<circle cx="18.5" cy="46.5" r="4.5" transform="rotate(-90 18.5 46.5)" fill="#3D3D3D"/>
<circle cx="46.5" cy="46.5" r="4.5" transform="rotate(-90 46.5 46.5)" fill="#3D3D3D"/>
<circle cx="4.5" cy="32.5" r="4.5" transform="rotate(-90 4.5 32.5)" fill="#3D3D3D"/>
<circle cx="32.5" cy="32.5" r="4.5" transform="rotate(-90 32.5 32.5)" fill="#3D3D3D"/>
<circle cx="18.5" cy="32.5" r="4.5" transform="rotate(-90 18.5 32.5)" fill="#3D3D3D"/>
<circle cx="46.5" cy="32.5" r="4.5" transform="rotate(-90 46.5 32.5)" fill="#3D3D3D"/>
<circle cx="4.5" cy="18.5" r="4.5" transform="rotate(-90 4.5 18.5)" fill="#3D3D3D"/>
<circle cx="32.5" cy="18.5" r="4.5" transform="rotate(-90 32.5 18.5)" fill="#3D3D3D"/>
<circle cx="18.5" cy="18.5" r="4.5" transform="rotate(-90 18.5 18.5)" fill="#3D3D3D"/>
<circle cx="46.5" cy="18.5" r="4.5" transform="rotate(-90 46.5 18.5)" fill="#3D3D3D"/>
<circle cx="4.5" cy="4.5" r="4.5" transform="rotate(-90 4.5 4.5)" fill="#3D3D3D"/>
<circle cx="32.5" cy="4.5" r="4.5" transform="rotate(-90 32.5 4.5)" fill="#3D3D3D"/>
<circle cx="18.5" cy="4.5" r="4.5" transform="rotate(-90 18.5 4.5)" fill="#3D3D3D"/>
<circle cx="46.5" cy="4.5" r="4.5" transform="rotate(-90 46.5 4.5)" fill="#3D3D3D"/>
</svg>
