<svg width="174" height="95" viewBox="0 0 174 95" fill="none" xmlns="http://www.w3.org/2000/svg">
<circle cx="164.853" cy="86.6176" r="8.38235" transform="rotate(180 164.853 86.6176)" fill="#3D3D3D"/>
<circle cx="164.853" cy="34.4608" r="8.38235" transform="rotate(180 164.853 34.4608)" fill="#3D3D3D"/>
<circle cx="164.853" cy="60.5393" r="8.38235" transform="rotate(180 164.853 60.5393)" fill="#3D3D3D"/>
<circle cx="164.853" cy="8.3823" r="8.38235" transform="rotate(180 164.853 8.3823)" fill="#3D3D3D"/>
<circle cx="138.775" cy="86.6176" r="8.38235" transform="rotate(180 138.775 86.6176)" fill="#3D3D3D"/>
<circle cx="138.775" cy="34.4608" r="8.38235" transform="rotate(180 138.775 34.4608)" fill="#3D3D3D"/>
<circle cx="138.775" cy="60.5393" r="8.38235" transform="rotate(180 138.775 60.5393)" fill="#3D3D3D"/>
<circle cx="138.775" cy="8.3823" r="8.38235" transform="rotate(180 138.775 8.3823)" fill="#3D3D3D"/>
<circle cx="112.696" cy="86.6176" r="8.38235" transform="rotate(180 112.696 86.6176)" fill="#3D3D3D"/>
<circle cx="112.696" cy="34.4608" r="8.38235" transform="rotate(180 112.696 34.4608)" fill="#3D3D3D"/>
<circle cx="112.696" cy="60.5393" r="8.38235" transform="rotate(180 112.696 60.5393)" fill="#3D3D3D"/>
<circle cx="112.696" cy="8.3823" r="8.38235" transform="rotate(180 112.696 8.3823)" fill="#3D3D3D"/>
<circle cx="86.6176" cy="86.6176" r="8.38235" transform="rotate(180 86.6176 86.6176)" fill="#3D3D3D"/>
<circle cx="86.6176" cy="34.4608" r="8.38235" transform="rotate(180 86.6176 34.4608)" fill="#3D3D3D"/>
<circle cx="86.6176" cy="60.5393" r="8.38235" transform="rotate(180 86.6176 60.5393)" fill="#3D3D3D"/>
<circle cx="86.6176" cy="8.3823" r="8.38235" transform="rotate(180 86.6176 8.3823)" fill="#3D3D3D"/>
<circle cx="60.5392" cy="86.6176" r="8.38235" transform="rotate(180 60.5392 86.6176)" fill="#3D3D3D"/>
<circle cx="60.5392" cy="34.4608" r="8.38235" transform="rotate(180 60.5392 34.4608)" fill="#3D3D3D"/>
<circle cx="60.5392" cy="60.5393" r="8.38235" transform="rotate(180 60.5392 60.5393)" fill="#3D3D3D"/>
<circle cx="60.5392" cy="8.38242" r="8.38235" transform="rotate(180 60.5392 8.38242)" fill="#3D3D3D"/>
<circle cx="34.4608" cy="86.6176" r="8.38235" transform="rotate(180 34.4608 86.6176)" fill="#3D3D3D"/>
<circle cx="34.4608" cy="34.4608" r="8.38235" transform="rotate(180 34.4608 34.4608)" fill="#3D3D3D"/>
<circle cx="34.4608" cy="60.5393" r="8.38235" transform="rotate(180 34.4608 60.5393)" fill="#3D3D3D"/>
<circle cx="34.4608" cy="8.3823" r="8.38235" transform="rotate(180 34.4608 8.3823)" fill="#3D3D3D"/>
<circle cx="8.38236" cy="86.6176" r="8.38235" transform="rotate(180 8.38236 86.6176)" fill="#3D3D3D"/>
<circle cx="8.38236" cy="34.4608" r="8.38235" transform="rotate(180 8.38236 34.4608)" fill="#3D3D3D"/>
<circle cx="8.38236" cy="60.5393" r="8.38235" transform="rotate(180 8.38236 60.5393)" fill="#3D3D3D"/>
<circle cx="8.38236" cy="8.3823" r="8.38235" transform="rotate(180 8.38236 8.3823)" fill="#3D3D3D"/>
</svg>
