<svg width="195" height="61" viewBox="0 0 195 61" fill="none" xmlns="http://www.w3.org/2000/svg">
<path fill-rule="evenodd" clip-rule="evenodd" d="M15.9258 15.4824L27.412 15.4824C29.1455 15.4824 30.7437 16.0668 32.0175 17.0485C33.2915 16.0668 34.888 15.4824 36.6214 15.4824L48.1077 15.4824C48.7698 15.4824 49.3115 16.0234 49.3115 16.6848L49.3115 26.0734L58.8471 26.0734C59.1275 26.0734 59.3547 26.3004 59.3547 26.5804C59.3547 26.8604 59.1275 27.0876 58.8471 27.0876L49.3115 27.0876L49.3115 28.2425L63.5259 28.2425C63.8062 28.2425 64.0335 28.4697 64.0335 28.7496C64.0335 29.0297 63.8062 29.2568 63.5259 29.2568L49.3115 29.2568L49.3115 30.4118L58.8471 30.4118C59.1275 30.4118 59.3547 30.6389 59.3547 30.9189C59.3547 31.1989 59.1275 31.4259 58.8471 31.4259L49.3115 31.4259L49.3115 40.8146C49.3115 41.4758 48.7698 42.0169 48.1077 42.0169L36.6214 42.0169C34.888 42.0169 33.2915 42.6013 32.0175 43.5831C30.7437 42.6013 29.1455 42.0169 27.412 42.0169L15.9258 42.0169C15.2637 42.0169 14.722 41.4758 14.722 40.8146L14.722 31.4259L5.18635 31.4259C4.90603 31.4259 4.67874 31.1989 4.67874 30.9189C4.67874 30.6389 4.90603 30.4118 5.18635 30.4118L14.722 30.4118L14.722 29.2568L0.507614 29.2568C0.227295 29.2568 -1.70501e-07 29.0297 -1.68853e-07 28.7496C-1.67207e-07 28.4697 0.227295 28.2425 0.507614 28.2425L14.722 28.2425L14.722 27.0876L5.18635 27.0876C4.90603 27.0876 4.67874 26.8604 4.67874 26.5804C4.67874 26.3004 4.90603 26.0734 5.18635 26.0734L14.722 26.0734L14.722 16.6848C14.722 16.0234 15.2637 15.4824 15.9258 15.4824ZM188.37 27.4935C188.255 27.5072 188.126 27.5044 188.126 27.639L188.11 35.2269C188.109 35.6434 188.347 36.0262 188.685 36.2616C188.836 36.3673 189.006 36.4329 189.187 36.4689C189.298 36.4909 189.329 36.6577 189.218 36.7108C189.112 36.7627 188.894 36.7508 188.792 36.7468C188.206 36.7234 187.619 36.7076 187.032 36.708C186.599 36.7082 186.163 36.7162 185.731 36.7467C185.605 36.7555 185.439 36.751 185.343 36.6555L185.189 36.5018C185.847 36.4438 186.54 36.1859 186.595 35.4236L186.579 27.639C186.579 27.5765 186.55 27.5382 186.501 27.509L185.708 27.509C185.109 27.509 184.204 27.5608 183.698 27.9218C183.248 28.2431 182.83 28.8538 182.52 29.3133L182.304 29.3133C182.291 28.4283 182.28 27.543 182.271 26.6579L192.388 26.6424C192.378 27.5275 192.368 28.4127 192.355 29.2979L192.139 29.2979C191.829 28.8384 191.411 28.2276 190.96 27.9064C190.454 27.5454 189.549 27.4935 188.951 27.4935L188.37 27.4935ZM93.3164 28.1635C93.3155 27.8631 93.2754 27.5126 93.1087 27.2542C92.9766 27.0494 92.7946 26.928 92.5533 26.8909L92.4672 26.8776L92.4672 26.6737L95.6612 26.6737L95.6612 26.8776L95.575 26.8909C95.3337 26.928 95.1518 27.0494 95.0197 27.2542C94.8521 27.514 94.8104 27.8603 94.812 28.1627L94.812 35.2295C94.8104 35.5319 94.8521 35.8782 95.0197 36.138C95.1518 36.3428 95.3337 36.4642 95.575 36.5013L95.6612 36.5146L95.6612 36.7185L92.4672 36.7185L92.4672 36.5146L92.5533 36.5013C92.7946 36.4642 92.9766 36.3428 93.1087 36.138C93.2754 35.8796 93.3155 35.5292 93.3164 35.2287L93.3164 28.1635ZM192.061 21.1226C192.85 19.9097 192.492 18.2049 195 18.2049C195 20.1664 193.408 21.7566 191.444 21.7566C151.63 21.7566 111.815 21.7566 72.0006 21.7566C70.0369 21.7566 68.4451 20.1664 68.4451 18.2049C70.953 18.2049 70.5946 19.9097 71.3836 21.1226C111.61 21.1226 151.836 21.1226 192.061 21.1226ZM72.0006 41.5238C70.0369 41.5238 68.4451 43.1138 68.4451 45.0753C70.6997 45.0753 70.6378 43.6975 71.1753 42.538C111.54 42.538 151.905 42.538 192.27 42.538C192.807 43.6975 192.745 45.0753 195 45.0753C195 43.1138 193.408 41.5238 191.444 41.5238C151.63 41.5238 111.815 41.5238 72.0006 41.5238ZM177.562 35.8733C177.879 35.8802 178.197 35.8808 178.514 35.8808C179.563 35.8808 181.042 35.5011 181.384 34.3882L181.555 34.5589L181.207 36.789C180.168 36.6597 178.677 36.7161 177.68 36.7161C176.491 36.7161 175.272 36.7233 174.084 36.7315L173.981 36.7321L173.981 36.5276C174.68 36.4209 174.829 35.8811 174.831 35.2417L174.846 28.1633C174.846 27.5324 174.694 26.9854 173.996 26.8776L173.996 26.6737L177.272 26.6737L177.272 26.8776C176.966 26.9248 176.793 27.0154 176.633 27.2957C176.446 27.6253 176.404 28.1964 176.392 28.5642L176.392 35.0878C176.392 35.7827 177.03 35.8611 177.562 35.8733ZM170.818 32.4937C170.987 35.3431 169.382 36.9474 166.548 36.9474C163.664 36.9474 161.975 35.6341 161.985 32.6662L162 28.2184L162 28.1016C162 27.4616 161.848 26.9235 161.151 26.816L161.151 26.6122L164.426 26.6122L164.426 26.816L164.34 26.8292C163.63 26.9386 163.566 27.9084 163.546 28.4716L163.546 32.4044C163.546 34.7288 164.35 36.0196 166.811 36.0196C168.983 36.0196 169.758 34.6523 169.751 32.6206L169.735 28.1173C169.733 27.4767 169.585 26.9392 168.886 26.8314L168.886 26.6275L171.652 26.6275L171.652 26.8314C170.957 26.9386 170.801 27.4772 170.803 28.1166L170.818 32.4937ZM157.26 34.7437C157.298 33.9397 156.821 33.5363 156.24 33.0932C155.424 32.4713 154.535 31.956 153.711 31.3363C152.815 30.6623 152.182 30.0704 152.258 28.8049C152.362 27.0803 154.096 26.3261 155.641 26.4582C156.063 26.4942 158.211 26.8481 158.128 27.4876C158.133 27.5382 158.133 27.5924 158.135 27.6426C158.138 27.7576 158.141 27.8728 158.143 27.988C158.15 28.3916 158.154 28.7955 158.158 29.1994L158.159 29.2012C158.185 29.2473 158.187 29.3071 158.129 29.3441C158.058 29.3895 158.006 29.341 157.969 29.2873C157.949 29.2573 157.928 29.2268 157.908 29.1965C157.828 29.0766 157.749 28.956 157.67 28.8356C157.096 27.9572 156.434 27.4329 155.363 27.3545C154.514 27.2922 153.731 27.5653 153.665 28.5228C153.629 29.2549 154.07 29.6937 154.607 30.1018C155.365 30.6769 156.229 31.1188 157.01 31.6856C157.85 32.2946 158.637 32.993 158.698 34.1076C158.723 34.3256 158.698 34.5599 158.658 34.7746C158.33 36.5553 156.371 37.1093 154.806 36.9779C154.03 36.9128 152.902 36.774 152.335 36.1932L152.335 33.933C152.891 34.4888 153.035 35.1045 153.747 35.6227C154.168 35.9288 154.645 36.0846 155.162 36.128C156.304 36.2237 157.204 35.9367 157.26 34.7437ZM141.25 29.5973L141.206 35.2421C141.206 35.8813 141.358 36.4206 142.055 36.5276L142.055 36.7315L139.289 36.7315L139.289 36.5276C139.986 36.4206 140.138 35.8815 140.138 35.2421L140.147 26.6429L140.341 26.6429L148.181 33.7663L148.167 28.1635C148.166 27.8631 148.126 27.5126 147.959 27.2542C147.827 27.0494 147.645 26.928 147.403 26.8909L147.317 26.8776L147.317 26.6737L150.083 26.6737L150.083 26.8776L149.997 26.8909C149.756 26.928 149.574 27.0494 149.442 27.2542C149.274 27.514 149.233 27.8603 149.234 28.1627L149.311 36.3942C149.316 36.5822 149.29 36.7388 149.164 36.8857L148.936 36.8857C148.593 36.5363 148.243 36.1957 147.892 35.8557C147.347 35.3293 146.799 34.8071 146.249 34.2862C144.591 32.7148 142.921 31.1548 141.25 29.5973ZM137.207 31.6641C137.207 34.7057 134.663 36.9474 131.686 36.9474C128.589 36.9474 126.119 34.9085 126.119 31.7104C126.119 28.6032 128.655 26.4117 131.686 26.4117C134.755 26.4117 137.207 28.5171 137.207 31.6641ZM124.037 34.0075C124.052 34.1855 124.053 34.3695 124.053 34.548C124.053 34.9507 124.154 35.7796 123.8 36.0898C123.573 36.2888 123.18 36.4423 122.905 36.5405C122.051 36.8449 121.085 36.932 120.184 36.932C117.184 36.932 114.629 34.7541 114.586 31.6795L114.586 31.6626C114.629 28.5869 117.183 26.4117 120.184 26.4117C121.085 26.4117 122.051 26.4987 122.905 26.8031C123.188 26.9042 123.597 27.0641 123.82 27.2717C124.147 27.598 124.053 28.3819 124.053 28.7955C124.053 28.9741 124.052 29.1581 124.037 29.336C124.027 29.4575 124.027 29.5596 123.923 29.6372L123.772 29.6372C123.513 28.0831 121.502 27.2776 120.138 27.2776C117.611 27.2776 116.364 29.231 116.364 31.587L116.364 31.7567C116.364 34.1125 117.611 36.0659 120.138 36.0659C121.536 36.0659 123.517 35.2375 123.772 33.7064L123.923 33.7064C124.027 33.7839 124.027 33.8861 124.037 34.0075ZM104.625 34.0479L100.364 34.0479L99.3917 36.7315L97.4103 36.7315L97.2266 36.5482C97.8621 36.4378 98.1774 35.9467 98.49 35.4048C98.5692 35.2678 98.6429 35.1268 98.7147 34.9859C98.9514 34.5215 99.1726 34.0462 99.3903 33.5726C99.8169 32.6446 100.243 31.7137 100.647 30.7776C101.347 29.0617 102.029 27.3412 102.681 25.6064C104.036 28.8281 105.426 32.0327 106.87 35.2156C107.178 35.8868 107.434 36.4088 108.238 36.5271L108.238 36.7309L105.673 36.7473C105.329 35.8453 104.985 34.9435 104.625 34.0479ZM88.1645 34.7437C88.2022 33.9396 87.7251 33.5365 87.144 33.0932C86.3286 32.4713 85.439 31.9561 84.6153 31.3363C83.7194 30.6621 83.0861 30.0706 83.1623 28.8049C83.2078 28.0485 83.5713 27.4622 84.185 27.0243C84.8786 26.5294 85.7079 26.3866 86.5454 26.4582C86.9672 26.4942 89.1153 26.8481 89.0322 27.4876C89.037 27.5382 89.0375 27.5924 89.039 27.6426C89.0549 28.1605 89.057 28.6811 89.062 29.1994C89.091 29.2529 89.0882 29.3089 89.0332 29.3441C88.9623 29.3896 88.9104 29.3412 88.8733 29.2873C88.8527 29.2573 88.8325 29.2268 88.8122 29.1965C88.122 28.1596 87.5941 27.4517 86.2668 27.3545C85.8539 27.3241 85.41 27.3647 85.0568 27.5999C84.7325 27.8159 84.5953 28.1434 84.5693 28.5228C84.5335 29.2554 84.974 29.6934 85.5116 30.1018C86.2686 30.6769 87.1327 31.1189 87.914 31.6856C88.7536 32.2944 89.541 32.9931 89.6023 34.1076C89.6275 34.3256 89.6018 34.5599 89.5624 34.7746C89.2349 36.5553 87.2744 37.1093 85.71 36.9779C84.9344 36.9128 83.8052 36.7738 83.2392 36.1932L83.2392 33.933C83.7954 34.4886 83.9388 35.1044 84.6512 35.6227C85.0719 35.9288 85.5494 36.0846 86.0666 36.128C87.2082 36.2237 88.1086 35.9367 88.1645 34.7437ZM78.4552 34.0479L74.1947 34.0479L73.2222 36.7315L71.2407 36.7315L71.0569 36.5482C71.8006 36.419 72.2211 35.6214 72.5451 34.9859C72.7819 34.5215 73.003 34.0462 73.2208 33.5726C73.6474 32.6446 74.0736 31.7137 74.4773 30.7776C75.1778 29.0615 75.8587 27.3412 76.5114 25.6064C77.8661 28.8281 79.2562 32.0327 80.7005 35.2156C81.0077 35.8906 81.27 36.409 82.0682 36.5271L82.0682 36.7309L79.5038 36.7473C79.1602 35.8453 78.8158 34.9435 78.4552 34.0479ZM135.475 31.9263C135.475 29.3382 134.065 27.3393 131.331 27.3393C129.04 27.3393 127.851 29.2918 127.851 31.4019C127.851 34.0414 129.21 36.0351 132.01 36.0351C134.337 36.0351 135.475 34.0496 135.475 31.9263ZM102.485 28.8765L100.677 33.2437L104.284 33.2437C104.115 32.8504 103.956 32.4492 103.793 32.0535C103.357 30.9946 102.921 29.9356 102.485 28.8765ZM76.3157 28.8765L74.5071 33.2437L78.1139 33.2437C77.9454 32.8504 77.7861 32.4492 77.6231 32.0535C77.1871 30.9946 76.7514 29.9356 76.3157 28.8765ZM9.2213 13.4166C9.21143 12.7374 8.5741 9.93981 5.44629 9.88267C5.41389 9.88179 5.3815 9.88128 5.34897 9.88128C5.34897 11.8685 6.42279 12.0541 7.47282 12.4393L7.47674 12.4407C7.52217 12.4573 7.56735 12.4744 7.61253 12.492L7.61721 12.4938L7.62278 12.4961C8.29542 12.7706 8.58713 13.1774 8.58713 13.4329L8.58713 15.7677C8.02776 14.5391 6.78828 13.6846 5.34897 13.6846C5.34897 16.4177 7.38018 15.7432 8.58713 16.8665L8.58713 19.5712C8.02776 18.3424 6.78828 17.488 5.34897 17.488C5.34897 20.2209 7.38018 19.5465 8.58713 20.6698L8.58713 23.3745C8.02776 22.1457 6.78828 21.2913 5.34897 21.2913C5.34897 24.0244 7.38018 23.3499 8.58713 24.4732L8.58713 25.14C8.58713 25.3151 8.72912 25.457 8.9044 25.457C9.07955 25.457 9.22168 25.3151 9.22168 25.14L9.22168 13.4329L9.22155 13.4247L9.2213 13.4166ZM54.8122 13.4166C54.8221 12.7374 55.4594 9.93981 58.5872 9.88267C58.6196 9.88179 58.652 9.88128 58.6845 9.88128C58.6845 11.8685 57.6107 12.0541 56.5607 12.4393L56.5567 12.4407C56.5113 12.4573 56.4661 12.4744 56.421 12.492L56.4163 12.4938L56.4107 12.4961C55.7381 12.7706 55.4463 13.1774 55.4463 13.4329L55.4463 15.7677C56.0057 14.5391 57.2452 13.6846 58.6845 13.6846C58.6845 16.4177 56.6533 15.7432 55.4463 16.8665L55.4463 19.5712C56.0057 18.3424 57.2452 17.488 58.6845 17.488C58.6845 20.2209 56.6533 19.5465 55.4463 20.6698L55.4463 23.3745C56.0057 22.1457 57.2452 21.2913 58.6845 21.2913C58.6845 24.0244 56.6533 23.3499 55.4463 24.4732L55.4463 25.14C55.4463 25.3151 55.3044 25.457 55.1291 25.457C54.9539 25.457 54.8118 25.3151 54.8118 25.14L54.8118 13.4329L54.8119 13.4247L54.8122 13.4166ZM49.8502 12.1665C49.5786 12.1019 49.4108 11.8297 49.4754 11.5583C49.5399 11.2872 49.8126 11.1194 50.0842 11.1839C51.1751 11.4461 52.1271 12.0731 52.8012 12.9265C53.4635 13.7648 53.8599 14.8195 53.8599 15.96L53.8599 24.9499C53.8599 25.2299 53.6326 25.457 53.3522 25.457C53.0719 25.457 52.8445 25.2299 52.8445 24.9499L52.8445 15.96C52.8445 15.0517 52.5314 14.2149 52.0081 13.5525C51.4713 12.8732 50.7152 12.3743 49.8502 12.1665ZM24.3966 55.8006C23.2054 55.6159 21.9496 56.0407 21.1199 57.0318C23.1936 58.7639 23.9846 56.8428 25.5821 56.5993L31.8344 60.812C31.9389 60.8852 32.0818 60.891 32.1939 60.8154L38.4514 56.5993C40.0489 56.8427 40.8399 58.7639 42.9136 57.0318C42.0839 56.0407 40.8281 55.6159 39.6369 55.8006L42.2569 54.0353C43.8543 54.2788 44.6453 56.1998 46.7191 54.4678C45.8896 53.4767 44.6335 53.0518 43.4422 53.2367L45.894 51.5848C47.4915 51.8283 48.2825 53.7493 50.3563 52.0173C49.5266 51.0262 48.2707 50.6013 47.0794 50.7861L49.3307 49.2694C49.452 49.1877 49.5717 49.1043 49.6899 49.0192C51.2938 49.2562 52.0838 51.189 54.1618 49.4532C53.2762 48.3952 51.9046 47.9823 50.6447 48.2678C51.2769 47.7246 51.8552 47.1304 52.3742 46.4928C53.9864 46.2875 55.2661 47.9469 56.8064 45.7166C55.6711 44.9342 54.2408 44.9017 53.1036 45.5111C53.3649 45.1249 53.6062 44.7261 53.8266 44.3161C53.9572 44.0733 54.0803 43.8265 54.1959 43.5762C55.7044 42.9793 57.3563 44.2614 58.2888 41.7199C56.9975 41.2471 55.6089 41.5696 54.6604 42.4379C54.9325 41.6742 55.1372 40.8836 55.2693 40.074C56.5647 39.1047 58.4929 39.8958 58.7153 37.2021C57.3471 37.0895 56.0963 37.7663 55.4122 38.8517C55.4348 38.5324 55.4463 38.2106 55.4463 37.8871L55.4463 36.348C56.6533 35.2247 58.6845 35.8993 58.6845 33.1663C57.2452 33.1663 56.0057 34.0207 55.4463 35.2495L55.4463 32.3592C55.4463 32.1842 55.3044 32.0423 55.1291 32.0423C54.9539 32.0423 54.8118 32.1842 54.8118 32.3592L54.8118 37.8871C54.8118 40.0687 54.2651 42.1627 53.2688 44.0164C52.2632 45.888 50.799 47.5162 48.9762 48.7444L32.0167 60.1711L15.0572 48.7444C13.2345 47.5162 11.7702 45.888 10.7646 44.0164C9.76839 42.1627 9.22168 40.0687 9.22168 37.8871L9.22168 32.3592C9.22168 32.1842 9.07955 32.0423 8.9044 32.0423C8.72912 32.0423 8.58713 32.1842 8.58713 32.3592L8.58713 35.2495C8.02776 34.0207 6.78828 33.1663 5.34897 33.1663C5.34897 35.8993 7.38018 35.2247 8.58713 36.348L8.58713 37.8871C8.58713 38.2106 8.59865 38.5324 8.6213 38.8517C7.93715 37.7663 6.6864 37.0895 5.31822 37.2021C5.54057 39.8958 7.46876 39.1047 8.76418 40.074C8.8963 40.8836 9.10094 41.6742 9.37304 42.4379C8.42463 41.5696 7.03595 41.2471 5.74471 41.7199C6.67716 44.2614 8.32908 42.9793 9.83762 43.5762C9.95316 43.8265 10.0763 44.0733 10.2069 44.3161C10.4272 44.7261 10.6686 45.1249 10.9299 45.5111C9.79269 44.9017 8.36237 44.9342 7.22704 45.7166C8.76734 47.9469 10.0471 46.2875 11.6592 46.4928C12.1782 47.1304 12.7566 47.7246 13.3887 48.2678C12.1289 47.9823 10.7573 48.3952 9.87166 49.4532C11.9497 51.189 12.7396 49.2562 14.3436 49.0192C14.4618 49.1043 14.5815 49.1877 14.7028 49.2694L16.9541 50.7861C15.7628 50.6013 14.5069 51.0262 13.6772 52.0173C15.751 53.7493 16.542 51.8283 18.1395 51.5848L20.5911 53.2367C19.4 53.0518 18.1439 53.4767 17.3144 54.4678C19.3882 56.1998 20.1792 54.2788 21.7766 54.0353L24.3966 55.8006ZM52.8445 32.5494C52.8445 32.2694 53.0719 32.0423 53.3522 32.0423C53.6326 32.0423 53.8599 32.2694 53.8599 32.5494L53.8599 37.8871C53.8599 39.95 53.3405 41.8935 52.4252 43.5943C51.4773 45.3555 50.1042 46.8548 48.4432 47.9549L32.3002 58.8321C32.1209 58.9529 31.8918 58.9438 31.7247 58.8262L15.59 47.9553C15.5841 47.9513 15.5784 47.9474 15.5728 47.9433C13.9196 46.8441 12.5527 45.3493 11.6082 43.5943C10.693 41.8935 10.1736 39.95 10.1736 37.8871L10.1736 32.5494C10.1736 32.2694 10.4009 32.0423 10.6812 32.0423C10.9616 32.0423 11.189 32.2694 11.189 32.5494L11.189 37.8871C11.189 39.7798 11.6638 41.5599 12.5006 43.1148C13.3666 44.724 14.6196 46.0942 16.1352 47.1015C16.1427 47.1059 16.1501 47.1106 16.1573 47.1155L32.0167 57.8009L47.8762 47.1155L47.8801 47.1135C49.4039 46.105 50.6635 44.7303 51.5329 43.1148C52.3697 41.5599 52.8445 39.7798 52.8445 37.8871L52.8445 32.5494ZM11.189 24.9499C11.189 25.2299 10.9616 25.457 10.6812 25.457C10.4009 25.457 10.1736 25.2299 10.1736 24.9499L10.1736 15.96C10.1736 14.8195 10.57 13.7649 11.2323 12.9265C11.9064 12.0731 12.8584 11.4461 13.9493 11.1839C14.2208 11.1194 14.4936 11.2872 14.5581 11.5583C14.6227 11.8297 14.4548 12.1019 14.1833 12.1665C13.3183 12.3743 12.5622 12.8732 12.0254 13.5525C11.5021 14.2151 11.189 15.0518 11.189 15.96L11.189 24.9499ZM31.2125 46.4738C30.5188 45.2727 29.4843 44.9146 28.8841 44.8395C29.8129 44.2593 29.0781 42.909 28.1043 43.1247C28.4031 43.4335 28.1738 44.0297 27.6883 44.1759C27.2726 44.3013 26.6517 44.2389 26.0676 44.3769C25.9736 44.4098 25.8771 44.4396 25.7789 44.4649C24.9239 44.6853 23.5706 44.861 22.6098 44.6875C21.8257 44.6458 21.0702 44.3768 20.4325 43.8455C20.7813 46.4795 22.9869 45.8395 22.5511 47.3172C23.2336 47.4047 24.3855 46.8461 23.9795 45.6223C26.2686 44.8439 29.4421 44.9069 30.5144 46.7633C31.5306 48.5224 30.7407 50.0598 29.6795 50.6714C28.6185 51.283 27.2751 50.8848 26.6551 49.9419C26.0358 48.9998 26.0456 47.5056 26.8565 47.0604C27.9646 46.4517 28.4478 47.5884 28.0828 48.0369C27.7836 48.4048 27.3108 48.4068 27.2031 47.9728C26.7064 48.259 26.8119 49.1452 27.7224 49.2366C27.6463 49.7691 28.4084 49.9161 28.6907 49.6106C28.9999 50.0937 30.0184 49.7472 30.0906 49.1945C29.0597 49.3376 29.626 47.6458 28.6524 46.6265C27.9672 45.9092 25.9912 45.9657 25.5998 47.4764C24.9667 46.8494 23.6165 47.5598 23.8398 48.5584C24.8645 47.7275 25.3133 49.9357 26.6047 51.0532C27.2049 51.5723 27.9032 51.8181 28.5982 51.8181C32.0064 51.8181 32.0785 47.9732 31.2125 46.4738ZM32.0167 51.1996C32.7714 52.4952 34.3279 52.5189 34.3279 52.5189C34.3279 52.5189 33.809 53.2727 32.9837 52.9899C32.9837 52.9899 33.0073 54.0735 32.0167 54.6861C31.0262 54.0735 31.0497 52.9899 31.0497 52.9899C30.2245 53.2727 29.7056 52.5189 29.7056 52.5189C29.7056 52.5189 31.2621 52.4952 32.0167 51.1996ZM32.0167 5.86493C32.0167 6.19639 32.7373 6.69144 32.8075 7.06373C32.9264 7.69619 32.1327 7.6948 32.0167 7.49367C31.9008 7.6948 31.1071 7.69619 31.226 7.06373C31.2961 6.69144 32.0167 6.19639 32.0167 5.86493ZM32.0167 15.49C32.7151 12.8857 36.3628 11.7508 37.5864 14.1809C38.2221 13.7229 38.7448 12.3624 37.4532 11.6605C38.7501 9.23302 41.4382 6.81722 43.7769 7.52717C45.993 8.1997 46.5345 10.0925 46.1287 11.4263C45.7229 12.7601 44.2956 13.4738 43.0451 13.1719C41.7956 12.87 40.6393 11.6199 40.9666 10.6189C41.4136 9.25097 42.7013 9.82048 42.7475 10.4773C42.7853 11.0159 42.3937 11.3853 41.9659 11.1083C41.776 11.7325 42.5543 12.3873 43.3829 11.7554C43.7346 12.2573 44.4828 11.787 44.4795 11.3131C45.1131 11.4745 45.6901 10.3942 45.3194 9.87863C44.5738 10.7993 43.7259 8.952 42.1219 8.86149C40.9929 8.7979 39.3939 10.3818 40.2459 11.9424C39.2306 11.9132 38.6615 13.554 39.6255 14.2109C39.8299 12.7229 41.9243 14.2103 43.8694 14.135C45.6428 14.0664 46.9107 12.8275 47.1967 11.1887L48.1327 10.7949L48.2674 10.7586C48.9829 10.5225 49.4763 9.633 49.3115 8.99776C47.8223 10.2198 47.3279 7.71363 44.1317 6.74352C42.6189 6.28413 41.4793 6.79105 40.9219 7.1952C41.2418 5.99034 39.5784 5.43891 38.9366 6.37578C39.4258 6.40018 39.6999 7.07422 39.4102 7.57344C39.1622 8.0011 38.5971 8.43193 38.2189 9.00093C38.1665 9.1013 38.1093 9.20117 38.0473 9.29876C37.6573 9.91226 37.0324 10.7089 36.363 11.331C36.7417 10.725 36.9965 9.99746 37.076 9.14706C37.3299 6.42963 35.3356 4.59951 35.427 3.08758C35.6328 3.66227 36.4491 3.43851 36.7436 2.93361C37.4339 1.75036 36.2802 0.898442 38.0089 0.118458C34.8389 -0.503128 34.1416 2.55145 34.8274 4.36703C34.916 4.51861 35.0056 4.69521 35.0934 4.90101C35.6131 6.12143 36.3121 7.44285 36.2558 8.78501C36.1471 8.70878 36.0183 8.65783 35.8768 8.64241C35.4285 8.59324 35.0252 8.91635 34.976 9.36424C34.9266 9.81201 35.2503 10.2149 35.6986 10.2641C35.7656 10.2714 35.8315 10.2695 35.8955 10.261C35.3006 11.3865 34.3914 12.1214 33.3862 12.4662C31.7301 12.9036 32.2831 8.41752 32.6908 8.16342C33.6663 8.57655 34.243 6.88801 35.4684 7.93233C35.4297 6.43279 33.9514 5.68985 33.0656 6.26795C33.2417 5.12578 32.2202 4.66955 32.0167 3.63205C31.8132 4.66955 30.7918 5.12578 30.9679 6.26795C30.0821 5.68985 28.6038 6.43279 28.5651 7.93233C29.7905 6.88801 30.3672 8.57655 31.3427 8.16342C31.7503 8.41752 32.3034 12.9036 30.6473 12.4662C29.6421 12.1214 28.7329 11.3865 28.138 10.261C28.202 10.2695 28.2679 10.2714 28.3349 10.2641C28.7831 10.2149 29.1069 9.81201 29.0575 9.36424C29.0083 8.91635 28.605 8.59324 28.1567 8.64241C28.0152 8.65783 27.8864 8.70878 27.7777 8.78501C27.7213 7.44285 28.4204 6.12143 28.9401 4.90101C29.0279 4.69521 29.1175 4.51861 29.2061 4.36703C29.8919 2.55145 29.1946 -0.503128 26.0246 0.118458C27.7532 0.898442 26.5996 1.75036 27.2899 2.93361C27.5844 3.43851 28.4007 3.66227 28.6065 3.08758C28.6978 4.59951 26.7036 6.42963 26.9575 9.14706C27.0369 9.99746 27.2918 10.725 27.6705 11.331C27.0011 10.7089 26.3762 9.91226 25.9861 9.29876C25.9241 9.20117 25.8669 9.1013 25.8145 9.00093C25.4364 8.43193 24.8713 8.0011 24.6233 7.57344C24.3336 7.07422 24.6077 6.40018 25.0968 6.37578C24.4551 5.43891 22.7917 5.99034 23.1116 7.1952C22.5542 6.79105 21.4146 6.28413 19.9018 6.74352C16.7056 7.71363 16.2112 10.2198 14.722 8.99776C14.5572 9.633 15.0505 10.5225 15.7661 10.7586L15.9007 10.7949L16.8367 11.1887C17.1227 12.8275 18.3907 14.0664 20.1641 14.135C22.1091 14.2103 24.2036 12.7229 24.408 14.2109C25.372 13.554 24.8029 11.9132 23.7876 11.9424C24.6396 10.3818 23.0406 8.7979 21.9116 8.86149C20.3076 8.952 19.4597 10.7993 18.7141 9.87863C18.3434 10.3942 18.9203 11.4745 19.554 11.3131C19.5507 11.787 20.2989 12.2573 20.6506 11.7554C21.4791 12.3873 22.2575 11.7325 22.0676 11.1083C21.6397 11.3853 21.2482 11.0159 21.286 10.4773C21.3322 9.82048 22.6199 9.25097 23.0669 10.6189C23.3942 11.6199 22.2378 12.87 20.9884 13.1719C19.7379 13.4738 18.3106 12.7601 17.9047 11.4263C17.499 10.0925 18.0405 8.1997 20.2566 7.52717C22.5952 6.81722 25.2834 9.23302 26.5803 11.6605C25.2887 12.3624 25.8114 13.7229 26.4471 14.1809C27.6707 11.7508 31.3184 12.8857 32.0167 15.49ZM32.821 46.4738C33.5146 45.2727 34.5492 44.9146 35.1494 44.8395C34.2206 44.2593 34.9553 42.909 35.9292 43.1247C35.6304 43.4335 35.8597 44.0297 36.3452 44.1759C36.7609 44.3013 37.3818 44.2389 37.9658 44.3769C38.0599 44.4098 38.1564 44.4396 38.2546 44.4649C39.1096 44.6853 40.4629 44.861 41.4237 44.6875C42.2078 44.6458 42.9632 44.3768 43.6009 43.8455C43.2522 46.4795 41.0466 45.8395 41.4824 47.3172C40.7999 47.4047 39.648 46.8461 40.054 45.6223C37.7649 44.8439 34.5914 44.9069 33.5191 46.7633C32.5028 48.5224 33.2928 50.0598 34.354 50.6714C35.415 51.283 36.7584 50.8848 37.3784 49.9419C37.9977 48.9998 37.9879 47.5056 37.177 47.0604C36.0689 46.4517 35.5857 47.5884 35.9507 48.0369C36.2499 48.4048 36.7227 48.4068 36.8304 47.9728C37.3271 48.259 37.2216 49.1452 36.3111 49.2366C36.3872 49.7691 35.6251 49.9161 35.3427 49.6106C35.0336 50.0937 34.015 49.7472 33.9429 49.1945C34.9738 49.3376 34.4075 47.6458 35.3811 46.6265C36.0662 45.9092 38.0423 45.9657 38.4337 47.4764C39.0667 46.8494 40.4169 47.5598 40.1937 48.5584C39.169 47.7275 38.7202 49.9357 37.4287 51.0532C36.8286 51.5723 36.1303 51.8181 35.4352 51.8181C32.0271 51.8181 31.955 47.9732 32.821 46.4738ZM20.4109 34.0241L18.5428 34.0241L18.5273 34.0086C19.3695 33.8625 20.2751 31.6569 20.573 31.009C21.7488 28.4519 22.7846 25.911 23.7767 23.2748C25.1561 26.5545 26.5197 29.6801 27.8681 32.6514C28.098 33.2643 28.528 33.9053 29.2268 34.0086L29.2268 34.0241L26.8337 34.0394C26.3911 32.8777 26.0411 31.9781 25.7838 31.3406L21.3836 31.3406L20.4109 34.0241ZM25.475 30.6157C25.4441 30.5438 24.8112 29.0067 23.5759 26.0045L21.6153 30.7391L25.5368 30.7391L25.475 30.6157ZM44.7265 31.2018C44.8642 31.3051 44.7464 32.9451 44.711 33.2067C44.6782 33.3055 44.6578 33.3215 44.5874 33.3918C43.8859 34.046 41.9235 34.2245 41.021 34.2245C38.0718 34.2245 35.5667 32.0977 35.5246 29.0734L35.5246 29.058C35.567 26.0351 38.0733 23.9071 41.021 23.9071C41.9226 23.9071 43.8868 24.086 44.5874 24.7398C44.6578 24.8102 44.6782 24.8263 44.711 24.925C44.7464 25.1867 44.8642 26.8265 44.7265 26.9298L44.6955 26.9298C44.4452 25.4323 42.3278 24.5703 40.9747 24.5703C38.3931 24.5703 37.0994 26.5707 37.0994 28.981L37.0994 29.058L37.0994 29.0734L37.0994 29.1507C37.0994 31.5609 38.3932 33.5615 40.9747 33.5615C42.3277 33.5615 44.4452 32.6991 44.6955 31.2018L44.7265 31.2018ZM32.0167 18.3289L31.3974 17.8515C30.2517 16.9686 28.8589 16.4966 27.412 16.4966L15.9258 16.4966C15.8242 16.4966 15.7374 16.5832 15.7374 16.6848L15.7374 40.8146C15.7374 40.9161 15.8242 41.0027 15.9258 41.0027L27.412 41.0027C29.0535 41.0027 30.645 41.4679 32.0167 42.3438L32.0167 18.3289Z" fill="#841B0C"/>
</svg>
