<svg width="64" height="56" viewBox="0 0 64 56" fill="none" xmlns="http://www.w3.org/2000/svg">
<g opacity="0.4" clip-path="url(#clip0)">
<path d="M36.6862 46.5049L39.007 50.0753C55.0739 39.2748 64 26.1535 64 15.3529C64 4.90938 56.3236 3.43323e-05 49.8075 3.43323e-05C41.5955 3.43323e-05 35.7936 6.96238 35.7936 14.2818C35.7936 20.4408 39.7211 25.7071 44.9874 27.6709C46.5049 28.2064 47.9331 28.6528 47.9331 31.2413C47.9331 34.544 45.523 39.4533 36.6862 46.5049ZM1.24965 46.5049L3.57043 50.0753C19.4589 39.2748 28.5635 26.1535 28.5635 15.3529C28.5635 4.90938 20.7085 3.43323e-05 14.1925 3.43323e-05C5.89121 3.43323e-05 0 6.96238 0 14.2818C0 20.4408 4.01674 25.7071 9.46165 27.6709C10.9791 28.2064 12.318 28.6528 12.318 31.2413C12.318 34.544 9.81869 39.4533 1.24965 46.5049Z" fill="#C51E1E"/>
</g>
<defs>
<clipPath id="clip0">
<rect width="64" height="55.9665" fill="white" transform="translate(64 55.9666) rotate(-180)"/>
</clipPath>
</defs>
</svg>
